<?xml version="1.0" encoding="UTF-8" standalone="no"?>
<!DOCTYPE svg PUBLIC "-//W3C//DTD SVG 1.1//EN" "http://www.w3.org/Graphics/SVG/1.1/DTD/svg11.dtd">
<svg width="100%" height="100%" viewBox="0 0 395 394" version="1.1" xmlns="http://www.w3.org/2000/svg" xmlns:xlink="http://www.w3.org/1999/xlink" xml:space="preserve" xmlns:serif="http://www.serif.com/" style="fill-rule:evenodd;clip-rule:evenodd;stroke-linecap:round;stroke-linejoin:round;stroke-miterlimit:1.5;">
    <g id="ArtBoard1" transform="matrix(3.15744,0,0,3.15127,-1824.8,-1069.41)">
        <rect x="577.936" y="339.359" width="125.267" height="125.267" style="fill:none;"/>
        <g transform="matrix(1.23555,0,0,1.23797,-150.942,-92.4304)">
            <g transform="matrix(1.14229,0,0,1.14229,-86.5921,-52.0814)">
                <circle cx="637.415" cy="394.872" r="41.6" style="fill:rgb(11,29,164);stroke:rgb(11,29,164);stroke-width:0.22px;"/>
            </g>
            <g transform="matrix(1,0,0,1,0.505711,-3.7596)">
                <g transform="matrix(1,0,0,1,0,0.162663)">
                    <path d="M646.887,398.473L646.887,377.13L653.915,377.13L653.915,393.462L669.304,378.073L676.559,378.073L662.065,392.568L677.47,413.439L669.141,413.439L657.884,398.212L653.394,402.052L653.394,413.569L646.839,413.569L646.887,398.473Z" style="fill:rgb(255,253,253);stroke:rgb(11,29,164);stroke-width:0.26px;"/>
                </g>
                <g transform="matrix(1,0,0,1,0,0.796526)">
                    <path d="M625.82,387.922L632.094,387.881C632.094,387.881 632.239,385.248 631.811,384.036C631.379,382.815 630.514,381.513 629.504,380.555C628.455,379.561 626.968,378.664 625.52,378.071C623.921,377.416 621.83,376.833 619.911,376.629C617.964,376.422 615.688,376.433 613.839,376.831C612.055,377.215 610.144,378.053 608.82,379.017C607.571,379.926 606.572,381.258 605.897,382.614C605.223,383.97 604.758,385.62 604.772,387.153C604.787,388.685 605.386,390.553 605.987,391.808C606.524,392.931 607.327,394.008 608.375,394.681C609.677,395.518 611.933,396.278 613.799,396.827C615.795,397.414 618.534,397.757 620.356,398.203C621.832,398.564 623.513,398.645 624.727,399.5C625.942,400.355 627.311,402.31 627.642,403.333C627.897,404.122 627.192,404.965 626.711,405.64C626.191,406.369 625.392,407.202 624.525,407.705C623.56,408.265 622.185,408.811 620.923,409C619.614,409.196 617.918,409.153 616.672,408.879C615.512,408.622 614.316,408.166 613.45,407.352C612.438,406.4 610.601,403.171 610.601,403.171L604.556,403.171C604.556,403.171 605.38,405.907 605.975,407.083C606.547,408.216 607.248,409.306 608.121,410.227C609.073,411.23 610.464,412.418 611.687,413.102C612.841,413.748 614.146,414.169 615.458,414.333C617.105,414.538 619.567,414.623 621.57,414.333C623.574,414.043 625.894,413.55 627.48,412.592C629.017,411.663 630.189,410.143 631.082,408.585C632.006,406.973 632.883,404.753 633.025,402.918C633.165,401.106 633.018,399.026 631.932,397.575C630.846,396.125 628.456,395.07 626.508,394.216C624.452,393.314 621.567,392.738 619.597,392.163C617.964,391.686 615.919,391.315 614.689,390.765C613.741,390.341 612.766,389.645 612.22,388.863C611.674,388.08 611.343,386.918 611.411,386.07C611.478,385.222 612.028,384.4 612.625,383.773C613.266,383.1 614.26,382.356 615.256,382.032C616.251,381.708 617.49,381.699 618.598,381.829C619.734,381.961 621.066,382.364 622.071,382.828C623.014,383.263 624.011,383.775 624.626,384.612C625.251,385.461 625.82,387.922 625.82,387.922Z" style="fill:rgb(255,253,253);stroke:rgb(11,29,164);stroke-width:0.26px;"/>
                </g>
                <g transform="matrix(1,0,0,1,0.158179,-0.372695)">
                    <path d="M642.268,430.227L647.994,414.154L646.627,414.154L646.562,398.976L639.014,420.726L631.466,393.918L624.178,393.918L636.086,430.031L642.268,430.227Z" style="fill:rgb(255,253,253);stroke:rgb(11,29,164);stroke-width:0.26px;"/>
                </g>
            </g>
            <g transform="matrix(1,0,0,1,-2.52174,-0.672077)">
                <text x="652.642px" y="428.327px" style="font-family:'Ebrima';font-size:12px;fill:rgb(255,253,253);">1<tspan x="658.247px 663.852px 669.456px " y="428.327px 428.327px 428.327px ">957</tspan></text>
            </g>
        </g>
    </g>
</svg>
